<svg width="32" height="32" viewBox="0 0 32 32" fill="none" xmlns="http://www.w3.org/2000/svg">
<path d="M7.02405 6.15193V25.8432C7.02553 26.2467 7.13974 26.6417 7.35379 26.9837C7.56785 27.3258 7.87324 27.6011 8.23549 27.7788C8.59774 27.9565 9.00244 28.0294 9.40392 27.9893C9.8054 27.9492 10.1877 27.7977 10.5076 27.5518L24.1426 16.9486C24.4128 16.738 24.6291 16.4662 24.7737 16.1557C24.9183 15.8451 24.9871 15.5046 24.9745 15.1623C24.9618 14.8199 24.868 14.4855 24.7007 14.1865C24.5335 13.8875 24.2977 13.6325 24.0126 13.4424L10.3777 4.35578C10.0522 4.14182 9.67499 4.01966 9.28586 4.00218C8.89672 3.9847 8.51007 4.07255 8.16669 4.25645C7.82331 4.44036 7.53592 4.71352 7.33481 5.04712C7.13371 5.38072 7.02635 5.7624 7.02405 6.15193Z" fill="white"/>
</svg>
