<svg width="33" height="33" viewBox="0 0 33 33" fill="none" xmlns="http://www.w3.org/2000/svg">
<path d="M13 4.75H11.5C11.0858 4.75 10.75 5.51751 10.75 6.46429V27.0357C10.75 27.9825 11.0858 28.75 11.5 28.75H13C13.4142 28.75 13.75 27.9825 13.75 27.0357V6.46429C13.75 5.51751 13.4142 4.75 13 4.75Z" fill="white"/>
<path d="M21 4.75H19.5C19.0858 4.75 18.75 5.51751 18.75 6.46429V27.0357C18.75 27.9825 19.0858 28.75 19.5 28.75H21C21.4142 28.75 21.75 27.9825 21.75 27.0357V6.46429C21.75 5.51751 21.4142 4.75 21 4.75Z" fill="white"/>
</svg>
